<svg version="1.1" width="47" height="183" viewBox="5 -1 47 183" xmlns="http://www.w3.org/2000/svg" xmlns:xlink="http://www.w3.org/1999/xlink">
  <defs>
    <linearGradient id="grad_1" x2="1">
      <stop offset="0" stop-color="#00FF55" stop-opacity="1"/>
      <stop offset="1" stop-color="#1A5E2F" stop-opacity="1"/>
    </linearGradient>
    <linearGradient id="grad_2" x2="1">
      <stop offset="0" stop-color="#5DB163" stop-opacity="1"/>
      <stop offset="1" stop-color="#05431F" stop-opacity="1"/>
    </linearGradient>
    <linearGradient id="grad_3" y2="1">
      <stop offset="0" stop-color="#A8C63E" stop-opacity="1"/>
      <stop offset="1" stop-color="#FFD451" stop-opacity="1"/>
    </linearGradient>
    <linearGradient id="grad_4" x2="1">
      <stop offset="0" stop-color="#5DB163" stop-opacity="1"/>
      <stop offset="1" stop-color="#05431F" stop-opacity="1"/>
    </linearGradient>
    <linearGradient id="grad_5" y2="1">
      <stop offset="0" stop-color="#FFFF00" stop-opacity="1"/>
      <stop offset="1" stop-color="#FFD451" stop-opacity="1"/>
    </linearGradient>
    <linearGradient id="grad_6" x2="1">
      <stop offset="0" stop-color="#4EAE41" stop-opacity="1"/>
      <stop offset="1" stop-color="#4B8731" stop-opacity="1"/>
    </linearGradient>
    <linearGradient id="grad_7" x2="1">
      <stop offset="0" stop-color="#4EAE41" stop-opacity="1"/>
      <stop offset="1" stop-color="#4B8731" stop-opacity="1"/>
    </linearGradient>
    <linearGradient id="grad_8" y2="1">
      <stop offset="0" stop-color="#A8C63E" stop-opacity="1"/>
      <stop offset="1" stop-color="#FFD451" stop-opacity="1"/>
    </linearGradient>
    <linearGradient id="grad_9" y2="1">
      <stop offset="0" stop-color="#FFFF99" stop-opacity="1"/>
      <stop offset="1" stop-color="#FFD451" stop-opacity="1"/>
    </linearGradient>
    <linearGradient id="grad_10" x2="1">
      <stop offset="0" stop-color="#5DB163" stop-opacity="1"/>
      <stop offset="1" stop-color="#05431F" stop-opacity="1"/>
    </linearGradient>
    <linearGradient id="grad_11" y2="1">
      <stop offset="0" stop-color="#A8C63E" stop-opacity="1"/>
      <stop offset="1" stop-color="#FFD451" stop-opacity="1"/>
    </linearGradient>
    <linearGradient id="grad_12" x2="1">
      <stop offset="0" stop-color="#5DB163" stop-opacity="1"/>
      <stop offset="1" stop-color="#05431F" stop-opacity="1"/>
    </linearGradient>
    <linearGradient id="grad_13" y2="1">
      <stop offset="0" stop-color="#FFFF00" stop-opacity="1"/>
      <stop offset="1" stop-color="#FFD451" stop-opacity="1"/>
    </linearGradient>
    <linearGradient id="grad_14" x2="1">
      <stop offset="0" stop-color="#4EAE41" stop-opacity="1"/>
      <stop offset="1" stop-color="#4B8731" stop-opacity="1"/>
    </linearGradient>
    <linearGradient id="grad_15" x2="1">
      <stop offset="0" stop-color="#4EAE41" stop-opacity="1"/>
      <stop offset="1" stop-color="#4B8731" stop-opacity="1"/>
    </linearGradient>
    <linearGradient id="grad_16" y2="1">
      <stop offset="0" stop-color="#A8C63E" stop-opacity="1"/>
      <stop offset="1" stop-color="#FFD451" stop-opacity="1"/>
    </linearGradient>
    <linearGradient id="grad_17" y2="1">
      <stop offset="0" stop-color="#FFFF99" stop-opacity="1"/>
      <stop offset="1" stop-color="#FFD451" stop-opacity="1"/>
    </linearGradient>
    <linearGradient id="grad_18" x2="1">
      <stop offset="0" stop-color="#5DB163" stop-opacity="1"/>
      <stop offset="1" stop-color="#05431F" stop-opacity="1"/>
    </linearGradient>
    <linearGradient id="grad_19" y2="1">
      <stop offset="0" stop-color="#A8C63E" stop-opacity="1"/>
      <stop offset="1" stop-color="#FFD451" stop-opacity="1"/>
    </linearGradient>
    <linearGradient id="grad_20" x2="1">
      <stop offset="0" stop-color="#5DB163" stop-opacity="1"/>
      <stop offset="1" stop-color="#05431F" stop-opacity="1"/>
    </linearGradient>
    <linearGradient id="grad_21" y2="1">
      <stop offset="0" stop-color="#FFFF00" stop-opacity="1"/>
      <stop offset="1" stop-color="#FFD451" stop-opacity="1"/>
    </linearGradient>
    <linearGradient id="grad_22" x2="1">
      <stop offset="0" stop-color="#4EAE41" stop-opacity="1"/>
      <stop offset="1" stop-color="#4B8731" stop-opacity="1"/>
    </linearGradient>
    <linearGradient id="grad_23" x2="1">
      <stop offset="0" stop-color="#4EAE41" stop-opacity="1"/>
      <stop offset="1" stop-color="#4B8731" stop-opacity="1"/>
    </linearGradient>
    <linearGradient id="grad_24" y2="1">
      <stop offset="0" stop-color="#A8C63E" stop-opacity="1"/>
      <stop offset="1" stop-color="#FFD451" stop-opacity="1"/>
    </linearGradient>
    <linearGradient id="grad_25" y2="1">
      <stop offset="0" stop-color="#FFFF99" stop-opacity="1"/>
      <stop offset="1" stop-color="#FFD451" stop-opacity="1"/>
    </linearGradient>
    <linearGradient id="grad_26" x2="1">
      <stop offset="0" stop-color="#5DB163" stop-opacity="1"/>
      <stop offset="1" stop-color="#05431F" stop-opacity="1"/>
    </linearGradient>
    <linearGradient id="grad_27" y2="1">
      <stop offset="0" stop-color="#A8C63E" stop-opacity="1"/>
      <stop offset="1" stop-color="#FFD451" stop-opacity="1"/>
    </linearGradient>
    <linearGradient id="grad_28" x2="1">
      <stop offset="0" stop-color="#5DB163" stop-opacity="1"/>
      <stop offset="1" stop-color="#05431F" stop-opacity="1"/>
    </linearGradient>
    <linearGradient id="grad_29" y2="1">
      <stop offset="0" stop-color="#FFFF00" stop-opacity="1"/>
      <stop offset="1" stop-color="#FFD451" stop-opacity="1"/>
    </linearGradient>
    <linearGradient id="grad_30" x2="1">
      <stop offset="0" stop-color="#4EAE41" stop-opacity="1"/>
      <stop offset="1" stop-color="#4B8731" stop-opacity="1"/>
    </linearGradient>
    <linearGradient id="grad_31" x2="1">
      <stop offset="0" stop-color="#4EAE41" stop-opacity="1"/>
      <stop offset="1" stop-color="#4B8731" stop-opacity="1"/>
    </linearGradient>
    <linearGradient id="grad_32" y2="1">
      <stop offset="0" stop-color="#A8C63E" stop-opacity="1"/>
      <stop offset="1" stop-color="#FFD451" stop-opacity="1"/>
    </linearGradient>
    <linearGradient id="grad_33" y2="1">
      <stop offset="0" stop-color="#FFFF99" stop-opacity="1"/>
      <stop offset="1" stop-color="#FFD451" stop-opacity="1"/>
    </linearGradient>
    <linearGradient id="grad_34" x2="1">
      <stop offset="0" stop-color="#5DB163" stop-opacity="1"/>
      <stop offset="1" stop-color="#05431F" stop-opacity="1"/>
    </linearGradient>
    <linearGradient id="grad_35" y2="1">
      <stop offset="0" stop-color="#A8C63E" stop-opacity="1"/>
      <stop offset="1" stop-color="#FFD451" stop-opacity="1"/>
    </linearGradient>
    <linearGradient id="grad_36" x2="1">
      <stop offset="0" stop-color="#5DB163" stop-opacity="1"/>
      <stop offset="1" stop-color="#05431F" stop-opacity="1"/>
    </linearGradient>
    <linearGradient id="grad_37" y2="1">
      <stop offset="0" stop-color="#FFFF00" stop-opacity="1"/>
      <stop offset="1" stop-color="#FFD451" stop-opacity="1"/>
    </linearGradient>
    <linearGradient id="grad_38" x2="1">
      <stop offset="0" stop-color="#4EAE41" stop-opacity="1"/>
      <stop offset="1" stop-color="#4B8731" stop-opacity="1"/>
    </linearGradient>
    <linearGradient id="grad_39" x2="1">
      <stop offset="0" stop-color="#4EAE41" stop-opacity="1"/>
      <stop offset="1" stop-color="#4B8731" stop-opacity="1"/>
    </linearGradient>
    <linearGradient id="grad_40" y2="1">
      <stop offset="0" stop-color="#A8C63E" stop-opacity="1"/>
      <stop offset="1" stop-color="#FFD451" stop-opacity="1"/>
    </linearGradient>
    <linearGradient id="grad_41" y2="1">
      <stop offset="0" stop-color="#FFFF99" stop-opacity="1"/>
      <stop offset="1" stop-color="#FFD451" stop-opacity="1"/>
    </linearGradient>
    <linearGradient id="grad_42" x2="1">
      <stop offset="0" stop-color="#5DB163" stop-opacity="1"/>
      <stop offset="1" stop-color="#05431F" stop-opacity="1"/>
    </linearGradient>
    <linearGradient id="grad_43" y2="1">
      <stop offset="0" stop-color="#A8C63E" stop-opacity="1"/>
      <stop offset="1" stop-color="#FFD451" stop-opacity="1"/>
    </linearGradient>
    <linearGradient id="grad_44" x2="1">
      <stop offset="0" stop-color="#5DB163" stop-opacity="1"/>
      <stop offset="1" stop-color="#05431F" stop-opacity="1"/>
    </linearGradient>
    <linearGradient id="grad_45" y2="1">
      <stop offset="0" stop-color="#FFFF00" stop-opacity="1"/>
      <stop offset="1" stop-color="#FFD451" stop-opacity="1"/>
    </linearGradient>
    <linearGradient id="grad_46" x2="1">
      <stop offset="0" stop-color="#4EAE41" stop-opacity="1"/>
      <stop offset="1" stop-color="#4B8731" stop-opacity="1"/>
    </linearGradient>
    <linearGradient id="grad_47" x2="1">
      <stop offset="0" stop-color="#4EAE41" stop-opacity="1"/>
      <stop offset="1" stop-color="#4B8731" stop-opacity="1"/>
    </linearGradient>
    <linearGradient id="grad_48" y2="1">
      <stop offset="0" stop-color="#A8C63E" stop-opacity="1"/>
      <stop offset="1" stop-color="#FFD451" stop-opacity="1"/>
    </linearGradient>
    <linearGradient id="grad_49" y2="1">
      <stop offset="0" stop-color="#FFFF99" stop-opacity="1"/>
      <stop offset="1" stop-color="#FFD451" stop-opacity="1"/>
    </linearGradient>
  </defs>
  <!-- Exported by Scratch - http://scratch.mit.edu/ -->
  <g id="ID0.8266369253396988" transform="matrix(1, 0, 0, 1, 1, 0)">
    <path id="ID0.37105565750971437" fill="url(#grad_1)" stroke="#000000" stroke-width="1" stroke-linecap="round" d="M 229.500 100 C 230.167 100.419 237.003 110.294 240.250 115.750 C 241.572 117.971 242.454 120.467 242.850 123 C 243.381 126.363 243.278 129.833 243.150 133.250 C 243.078 135.348 243.052 137.450 242.250 139.500 C 239.044 147.700 233.513 155.026 231.150 163.500 C 228.872 171.989 226.533 181.187 228.500 189.750 C 230.873 200.082 241.824 207.133 243.750 217.500 C 245.929 229.230 241.404 241.363 240 253.250 C 239.649 256.222 240.326 257.939 238.650 258.650 C 236.951 259.389 233.517 258.178 233.250 256.150 C 232.775 252.503 236.331 249.410 237.250 245.850 C 238.460 241.162 239.427 236.406 240 231.650 C 240.264 227.889 241.094 223.852 239.750 220.400 C 235.843 210.329 227.228 202.290 224.250 191.900 C 222.452 185.628 224.985 178.887 226.150 172.400 C 226.900 168.223 228.568 164.232 230.150 160.300 C 233.192 152.744 237.570 145.511 239.750 137.800 C 241.034 133.262 241.089 128.242 240.350 123.650 C 239.718 119.717 237.320 116.363 235.650 112.650 C 233.728 108.379 228.833 99.581 229.500 100 Z " transform="matrix(1, 0, 0, 1, -210, -77)"/>
    <g id="ID0.01721258880570531">
      <path id="ID0.7024129326455295" fill="url(#grad_2)" stroke="#1A5E2F" stroke-linecap="round" d="M 238.700 73.650 C 240.282 74.009 236.809 80.087 236.850 83.250 C 236.894 86.596 238.824 89.682 238.850 93.100 C 238.867 95.412 238.560 98.075 236.850 99.750 C 235.529 101.043 233.210 100.580 231.350 100.500 C 229.647 100.426 227.936 99.687 226.500 98.750 C 225.770 98.270 225.577 97.206 225.350 96.350 C 225.027 95.355 224.882 94.257 225.150 93.150 C 225.333 90.924 225.680 88.815 226.650 86.500 C 227.459 84.615 228.870 83.018 230.250 81.500 C 232.831 78.659 236.909 73.294 238.700 73.650 Z " transform="matrix(0.9359389543533325, -0.35216227173805237, 0.35216227173805237, 0.9359389543533325, -232.7, 18.65)"/>
      <path id="ID0.6281057996675372" fill="url(#grad_3)" stroke="#000000" stroke-linecap="round" d="M 216.600 77.600 C 217.685 78.416 217.521 81.546 217.750 83.500 C 217.960 85.310 218.307 87.330 217.859 88.973 C 217.590 89.904 216.822 90.677 215.950 90.900 C 214.995 91.147 213.299 91.321 212.850 90.400 C 212.142 88.504 212.981 86.330 213.250 84.325 C 213.406 83.153 213.488 81.889 214 80.800 C 214.576 79.609 215.811 77.066 216.600 77.600 Z " transform="matrix(0.9971067905426025, -0.07601286470890045, 0.07601286470890045, 0.9971067905426025, -207.1, -50.35)"/>
      <path id="ID0.7024129326455295" fill="url(#grad_4)" stroke="#1A5E2F" stroke-linecap="round" d="M 234.650 74.750 C 236.566 74.978 236.165 80.349 236.850 83.250 C 237.565 86.461 238.824 89.682 238.850 93.100 C 238.867 95.412 238.560 98.075 236.850 99.750 C 235.529 101.043 233.236 100.483 231.350 100.500 C 229.677 100.518 227.780 100.895 226.350 100 C 225.188 99.274 224.406 97.826 224.350 96.400 C 224.251 93.927 225.088 91.457 225.750 89.100 C 226.432 86.671 227.322 84.155 228.650 82.100 C 230.368 79.450 232.528 74.498 234.650 74.750 Z " transform="matrix(0.9359389543533325, -0.35216227173805237, 0.35216227173805237, 0.9359389543533325, -228.55, 17.35)"/>
      <path id="ID0.7577336127869785" fill="url(#grad_5)" stroke="#1A5E2F" stroke-linecap="round" d="M 236.150 73.250 C 237.468 72.125 236.836 78.278 237.050 80.750 C 237.124 83.500 237.233 86.268 237 88.925 C 236.783 91.424 236.336 94.355 235.263 96.224 C 234.191 98.093 232.710 99.250 231.075 99.250 C 229.440 99.250 226.900 98.015 226.887 96.224 C 230.426 81.499 233.092 76.554 236.150 73.250 Z " transform="matrix(0.9315857291221619, -0.35052430629730225, 0.35216227173805237, 0.9359389543533325, -228.75, 16.1)"/>
      <path id="ID0.43108229618519545" fill="url(#grad_6)" stroke="url(#grad_7)" stroke-width="2" stroke-linecap="round" d="M 234.500 79.450 C 235.708 79.422 235.767 83.566 236.150 85.600 C 236.484 87.374 236.636 89.194 236.650 91 C 236.670 92.933 237.132 95.140 236.350 97 C 235.847 98.012 234.401 98.441 233.250 98.600 C 231.579 98.830 229.301 99.477 228.350 98.200 C 227.169 96.650 228.253 94.337 228.650 92.500 C 229.140 90.235 229.892 88.009 230.850 85.900 C 231.852 83.693 233.058 79.572 234.500 79.450 Z " transform="matrix(0.9359389543533325, -0.35216227173805237, 0.35216227173805237, 0.9359389543533325, -230, 16.9)"/>
      <path id="ID0.6281057996675372" fill="url(#grad_8)" stroke="#4DA43D" stroke-linecap="round" d="M 216.600 77.600 C 217.685 78.416 217.521 81.546 217.750 83.500 C 217.960 85.310 218.307 87.330 217.859 88.973 C 217.590 89.904 216.822 90.677 215.950 90.900 C 214.995 91.147 213.299 91.321 212.850 90.400 C 212.142 88.504 212.981 86.330 213.250 84.325 C 213.406 83.153 213.488 81.889 214 80.800 C 214.576 79.609 215.811 77.066 216.600 77.600 Z " transform="matrix(0.9359389543533325, -0.35216227173805237, 0.35216227173805237, 0.9359389543533325, -212.4, 12.7)"/>
      <path id="ID0.6726859896443784" fill="url(#grad_9)" stroke="#000000" stroke-linecap="round" d="M 216.750 78.250 C 217.183 78.332 216.708 79.946 216.850 80.750 C 216.883 81.428 217.210 82.066 217.250 82.750 C 217.290 83.330 217.449 83.954 217.150 84.500 C 216.860 85.022 216.430 85.663 215.850 85.750 C 215.258 85.846 214.610 85.442 214.250 84.900 C 213.924 84.409 214.100 83.818 214.150 83.125 C 214.221 82.228 214.369 81.326 214.787 80.562 C 215.235 79.745 216.225 78.240 216.750 78.250 Z " transform="matrix(0.9359389543533325, -0.35216227173805237, 0.35216227173805237, 0.9359389543533325, -212.45, 13.6)"/>
    </g>
    <g id="ID0.01721258880570531">
      <path id="ID0.7024129326455295" fill="url(#grad_10)" stroke="#1A5E2F" stroke-linecap="round" d="M 238.700 73.650 C 240.282 74.009 236.809 80.087 236.850 83.250 C 236.894 86.596 238.824 89.682 238.850 93.100 C 238.867 95.412 238.560 98.075 236.850 99.750 C 235.529 101.043 233.210 100.580 231.350 100.500 C 229.647 100.426 227.936 99.687 226.500 98.750 C 225.770 98.270 225.577 97.206 225.350 96.350 C 225.027 95.355 224.882 94.257 225.150 93.150 C 225.333 90.924 225.680 88.815 226.650 86.500 C 227.459 84.615 228.870 83.018 230.250 81.500 C 232.831 78.659 236.909 73.294 238.700 73.650 Z " transform="matrix(-0.8399786353111267, -0.5426194071769714, -0.5426194071769714, 0.8399786353111267, 287.3, 100.1)"/>
      <path id="ID0.6281057996675372" fill="url(#grad_11)" stroke="#000000" stroke-linecap="round" d="M 216.600 77.600 C 217.685 78.416 217.521 81.546 217.750 83.500 C 217.960 85.310 218.307 87.330 217.859 88.973 C 217.590 89.904 216.822 90.677 215.950 90.900 C 214.995 91.147 213.299 91.321 212.850 90.400 C 212.142 88.504 212.981 86.330 213.250 84.325 C 213.406 83.153 213.488 81.889 214 80.800 C 214.576 79.609 215.811 77.066 216.600 77.600 Z " transform="matrix(-0.9583129286766052, -0.2857205867767334, -0.2857205867767334, 0.9583129286766052, 276.9, 27.2)"/>
      <path id="ID0.7024129326455295" fill="url(#grad_12)" stroke="#1A5E2F" stroke-linecap="round" d="M 234.650 74.750 C 236.566 74.978 236.165 80.349 236.850 83.250 C 237.565 86.461 238.824 89.682 238.850 93.100 C 238.867 95.412 238.560 98.075 236.850 99.750 C 235.529 101.043 233.236 100.483 231.350 100.500 C 229.677 100.518 227.780 100.895 226.350 100 C 225.188 99.274 224.406 97.826 224.350 96.400 C 224.251 93.927 225.088 91.457 225.750 89.100 C 226.432 86.671 227.322 84.155 228.650 82.100 C 230.368 79.450 232.528 74.498 234.650 74.750 Z " transform="matrix(-0.8399786353111267, -0.5426194071769714, -0.5426194071769714, 0.8399786353111267, 283.5, 97.95)"/>
      <path id="ID0.7577336127869785" fill="url(#grad_13)" stroke="#1A5E2F" stroke-linecap="round" d="M 236.150 73.250 C 237.468 72.125 236.836 78.278 237.050 80.750 C 237.124 83.500 237.233 86.268 237 88.925 C 236.783 91.424 236.336 94.355 235.263 96.224 C 234.191 98.093 232.710 99.250 231.075 99.250 C 229.440 99.250 226.900 98.015 226.887 96.224 C 230.426 81.499 233.092 76.554 236.150 73.250 Z " transform="matrix(-0.8360717296600342, -0.5400955677032471, -0.5426194071769714, 0.8399786353111267, 284, 96.8)"/>
      <path id="ID0.43108229618519545" fill="url(#grad_14)" stroke="url(#grad_15)" stroke-width="2" stroke-linecap="round" d="M 234.500 79.450 C 235.708 79.422 235.767 83.566 236.150 85.600 C 236.484 87.374 236.636 89.194 236.650 91 C 236.670 92.933 237.132 95.140 236.350 97 C 235.847 98.012 234.401 98.441 233.250 98.600 C 231.579 98.830 229.301 99.477 228.350 98.200 C 227.169 96.650 228.253 94.337 228.650 92.500 C 229.140 90.235 229.892 88.009 230.850 85.900 C 231.852 83.693 233.058 79.572 234.500 79.450 Z " transform="matrix(-0.8399786353111267, -0.5426194071769714, -0.5426194071769714, 0.8399786353111267, 285.05, 97.8)"/>
      <path id="ID0.6281057996675372" fill="url(#grad_16)" stroke="#4DA43D" stroke-linecap="round" d="M 216.600 77.600 C 217.685 78.416 217.521 81.546 217.750 83.500 C 217.960 85.310 218.307 87.330 217.859 88.973 C 217.590 89.904 216.822 90.677 215.950 90.900 C 214.995 91.147 213.299 91.321 212.850 90.400 C 212.142 88.504 212.981 86.330 213.250 84.325 C 213.406 83.153 213.488 81.889 214 80.800 C 214.576 79.609 215.811 77.066 216.600 77.600 Z " transform="matrix(-0.8399786353111267, -0.5426194071769714, -0.5426194071769714, 0.8399786353111267, 268.75, 89.95)"/>
      <path id="ID0.6726859896443784" fill="url(#grad_17)" stroke="#000000" stroke-linecap="round" d="M 216.750 78.250 C 217.183 78.332 216.708 79.946 216.850 80.750 C 216.883 81.428 217.210 82.066 217.250 82.750 C 217.290 83.330 217.449 83.954 217.150 84.500 C 216.860 85.022 216.430 85.663 215.850 85.750 C 215.258 85.846 214.610 85.442 214.250 84.900 C 213.924 84.409 214.100 83.818 214.150 83.125 C 214.221 82.228 214.369 81.326 214.787 80.562 C 215.235 79.745 216.225 78.240 216.750 78.250 Z " transform="matrix(-0.8399786353111267, -0.5426194071769714, -0.5426194071769714, 0.8399786353111267, 268.55, 90.9)"/>
    </g>
    <g id="ID0.01721258880570531">
      <path id="ID0.7024129326455295" fill="url(#grad_18)" stroke="#1A5E2F" stroke-linecap="round" d="M 238.700 73.650 C 240.282 74.009 236.809 80.087 236.850 83.250 C 236.894 86.596 238.824 89.682 238.850 93.100 C 238.867 95.412 238.560 98.075 236.850 99.750 C 235.529 101.043 233.210 100.580 231.350 100.500 C 229.647 100.426 227.936 99.687 226.500 98.750 C 225.770 98.270 225.577 97.206 225.350 96.350 C 225.027 95.355 224.882 94.257 225.150 93.150 C 225.333 90.924 225.680 88.815 226.650 86.500 C 227.459 84.615 228.870 83.018 230.250 81.500 C 232.831 78.659 236.909 73.294 238.700 73.650 Z " transform="matrix(0.9359389543533325, -0.35216227173805237, 0.35216227173805237, 0.9359389543533325, -235.95, 68.5)"/>
      <path id="ID0.6281057996675372" fill="url(#grad_19)" stroke="#000000" stroke-linecap="round" d="M 216.600 77.600 C 217.685 78.416 217.521 81.546 217.750 83.500 C 217.960 85.310 218.307 87.330 217.859 88.973 C 217.590 89.904 216.822 90.677 215.950 90.900 C 214.995 91.147 213.299 91.321 212.850 90.400 C 212.142 88.504 212.981 86.330 213.250 84.325 C 213.406 83.153 213.488 81.889 214 80.800 C 214.576 79.609 215.811 77.066 216.600 77.600 Z " transform="matrix(0.9971067905426025, -0.07601286470890045, 0.07601286470890045, 0.9971067905426025, -210.35, -0.5)"/>
      <path id="ID0.7024129326455295" fill="url(#grad_20)" stroke="#1A5E2F" stroke-linecap="round" d="M 234.650 74.750 C 236.566 74.978 236.165 80.349 236.850 83.250 C 237.565 86.461 238.824 89.682 238.850 93.100 C 238.867 95.412 238.560 98.075 236.850 99.750 C 235.529 101.043 233.236 100.483 231.350 100.500 C 229.677 100.518 227.780 100.895 226.350 100 C 225.188 99.274 224.406 97.826 224.350 96.400 C 224.251 93.927 225.088 91.457 225.750 89.100 C 226.432 86.671 227.322 84.155 228.650 82.100 C 230.368 79.450 232.528 74.498 234.650 74.750 Z " transform="matrix(0.9359389543533325, -0.35216227173805237, 0.35216227173805237, 0.9359389543533325, -231.8, 67.2)"/>
      <path id="ID0.7577336127869785" fill="url(#grad_21)" stroke="#1A5E2F" stroke-linecap="round" d="M 236.150 73.250 C 237.468 72.125 236.836 78.278 237.050 80.750 C 237.124 83.500 237.233 86.268 237 88.925 C 236.783 91.424 236.336 94.355 235.263 96.224 C 234.191 98.093 232.710 99.250 231.075 99.250 C 229.440 99.250 226.900 98.015 226.887 96.224 C 230.426 81.499 233.092 76.554 236.150 73.250 Z " transform="matrix(0.9315857291221619, -0.35052430629730225, 0.35216227173805237, 0.9359389543533325, -232, 65.95)"/>
      <path id="ID0.43108229618519545" fill="url(#grad_22)" stroke="url(#grad_23)" stroke-width="2" stroke-linecap="round" d="M 234.500 79.450 C 235.708 79.422 235.767 83.566 236.150 85.600 C 236.484 87.374 236.636 89.194 236.650 91 C 236.670 92.933 237.132 95.140 236.350 97 C 235.847 98.012 234.401 98.441 233.250 98.600 C 231.579 98.830 229.301 99.477 228.350 98.200 C 227.169 96.650 228.253 94.337 228.650 92.500 C 229.140 90.235 229.892 88.009 230.850 85.900 C 231.852 83.693 233.058 79.572 234.500 79.450 Z " transform="matrix(0.9359389543533325, -0.35216227173805237, 0.35216227173805237, 0.9359389543533325, -233.25, 66.75)"/>
      <path id="ID0.6281057996675372" fill="url(#grad_24)" stroke="#4DA43D" stroke-linecap="round" d="M 216.600 77.600 C 217.685 78.416 217.521 81.546 217.750 83.500 C 217.960 85.310 218.307 87.330 217.859 88.973 C 217.590 89.904 216.822 90.677 215.950 90.900 C 214.995 91.147 213.299 91.321 212.850 90.400 C 212.142 88.504 212.981 86.330 213.250 84.325 C 213.406 83.153 213.488 81.889 214 80.800 C 214.576 79.609 215.811 77.066 216.600 77.600 Z " transform="matrix(0.9359389543533325, -0.35216227173805237, 0.35216227173805237, 0.9359389543533325, -215.65, 62.55)"/>
      <path id="ID0.6726859896443784" fill="url(#grad_25)" stroke="#000000" stroke-linecap="round" d="M 216.750 78.250 C 217.183 78.332 216.708 79.946 216.850 80.750 C 216.883 81.428 217.210 82.066 217.250 82.750 C 217.290 83.330 217.449 83.954 217.150 84.500 C 216.860 85.022 216.430 85.663 215.850 85.750 C 215.258 85.846 214.610 85.442 214.250 84.900 C 213.924 84.409 214.100 83.818 214.150 83.125 C 214.221 82.228 214.369 81.326 214.787 80.562 C 215.235 79.745 216.225 78.240 216.750 78.250 Z " transform="matrix(0.9359389543533325, -0.35216227173805237, 0.35216227173805237, 0.9359389543533325, -215.7, 63.45)"/>
    </g>
    <g id="ID0.01721258880570531">
      <path id="ID0.7024129326455295" fill="url(#grad_26)" stroke="#1A5E2F" stroke-linecap="round" d="M 238.700 73.650 C 240.282 74.009 236.809 80.087 236.850 83.250 C 236.894 86.596 238.824 89.682 238.850 93.100 C 238.867 95.412 238.560 98.075 236.850 99.750 C 235.529 101.043 233.210 100.580 231.350 100.500 C 229.647 100.426 227.936 99.687 226.500 98.750 C 225.770 98.270 225.577 97.206 225.350 96.350 C 225.027 95.355 224.882 94.257 225.150 93.150 C 225.333 90.924 225.680 88.815 226.650 86.500 C 227.459 84.615 228.870 83.018 230.250 81.500 C 232.831 78.659 236.909 73.294 238.700 73.650 Z " transform="matrix(-0.8399786353111267, -0.5426194071769714, -0.5426194071769714, 0.8399786353111267, 270.85, 151.45)"/>
      <path id="ID0.6281057996675372" fill="url(#grad_27)" stroke="#000000" stroke-linecap="round" d="M 216.600 77.600 C 217.685 78.416 217.521 81.546 217.750 83.500 C 217.960 85.310 218.307 87.330 217.859 88.973 C 217.590 89.904 216.822 90.677 215.950 90.900 C 214.995 91.147 213.299 91.321 212.850 90.400 C 212.142 88.504 212.981 86.330 213.250 84.325 C 213.406 83.153 213.488 81.889 214 80.800 C 214.576 79.609 215.811 77.066 216.600 77.600 Z " transform="matrix(-0.9583129286766052, -0.2857205867767334, -0.2857205867767334, 0.9583129286766052, 260.45, 78.55)"/>
      <path id="ID0.7024129326455295" fill="url(#grad_28)" stroke="#1A5E2F" stroke-linecap="round" d="M 234.650 74.750 C 236.566 74.978 236.165 80.349 236.850 83.250 C 237.565 86.461 238.824 89.682 238.850 93.100 C 238.867 95.412 238.560 98.075 236.850 99.750 C 235.529 101.043 233.236 100.483 231.350 100.500 C 229.677 100.518 227.780 100.895 226.350 100 C 225.188 99.274 224.406 97.826 224.350 96.400 C 224.251 93.927 225.088 91.457 225.750 89.100 C 226.432 86.671 227.322 84.155 228.650 82.100 C 230.368 79.450 232.528 74.498 234.650 74.750 Z " transform="matrix(-0.8399786353111267, -0.5426194071769714, -0.5426194071769714, 0.8399786353111267, 267.05, 149.3)"/>
      <path id="ID0.7577336127869785" fill="url(#grad_29)" stroke="#1A5E2F" stroke-linecap="round" d="M 236.150 73.250 C 237.468 72.125 236.836 78.278 237.050 80.750 C 237.124 83.500 237.233 86.268 237 88.925 C 236.783 91.424 236.336 94.355 235.263 96.224 C 234.191 98.093 232.710 99.250 231.075 99.250 C 229.440 99.250 226.900 98.015 226.887 96.224 C 230.426 81.499 233.092 76.554 236.150 73.250 Z " transform="matrix(-0.8360717296600342, -0.5400955677032471, -0.5426194071769714, 0.8399786353111267, 267.55, 148.15)"/>
      <path id="ID0.43108229618519545" fill="url(#grad_30)" stroke="url(#grad_31)" stroke-width="2" stroke-linecap="round" d="M 234.500 79.450 C 235.708 79.422 235.767 83.566 236.150 85.600 C 236.484 87.374 236.636 89.194 236.650 91 C 236.670 92.933 237.132 95.140 236.350 97 C 235.847 98.012 234.401 98.441 233.250 98.600 C 231.579 98.830 229.301 99.477 228.350 98.200 C 227.169 96.650 228.253 94.337 228.650 92.500 C 229.140 90.235 229.892 88.009 230.850 85.900 C 231.852 83.693 233.058 79.572 234.500 79.450 Z " transform="matrix(-0.8399786353111267, -0.5426194071769714, -0.5426194071769714, 0.8399786353111267, 268.6, 149.15)"/>
      <path id="ID0.6281057996675372" fill="url(#grad_32)" stroke="#4DA43D" stroke-linecap="round" d="M 216.600 77.600 C 217.685 78.416 217.521 81.546 217.750 83.500 C 217.960 85.310 218.307 87.330 217.859 88.973 C 217.590 89.904 216.822 90.677 215.950 90.900 C 214.995 91.147 213.299 91.321 212.850 90.400 C 212.142 88.504 212.981 86.330 213.250 84.325 C 213.406 83.153 213.488 81.889 214 80.800 C 214.576 79.609 215.811 77.066 216.600 77.600 Z " transform="matrix(-0.8399786353111267, -0.5426194071769714, -0.5426194071769714, 0.8399786353111267, 252.3, 141.3)"/>
      <path id="ID0.6726859896443784" fill="url(#grad_33)" stroke="#000000" stroke-linecap="round" d="M 216.750 78.250 C 217.183 78.332 216.708 79.946 216.850 80.750 C 216.883 81.428 217.210 82.066 217.250 82.750 C 217.290 83.330 217.449 83.954 217.150 84.500 C 216.860 85.022 216.430 85.663 215.850 85.750 C 215.258 85.846 214.610 85.442 214.250 84.900 C 213.924 84.409 214.100 83.818 214.150 83.125 C 214.221 82.228 214.369 81.326 214.787 80.562 C 215.235 79.745 216.225 78.240 216.750 78.250 Z " transform="matrix(-0.8399786353111267, -0.5426194071769714, -0.5426194071769714, 0.8399786353111267, 252.1, 142.25)"/>
    </g>
    <g id="ID0.01721258880570531">
      <path id="ID0.7024129326455295" fill="url(#grad_34)" stroke="#1A5E2F" stroke-linecap="round" d="M 238.700 73.650 C 240.282 74.009 236.809 80.087 236.850 83.250 C 236.894 86.596 238.824 89.682 238.850 93.100 C 238.867 95.412 238.560 98.075 236.850 99.750 C 235.529 101.043 233.210 100.580 231.350 100.500 C 229.647 100.426 227.936 99.687 226.500 98.750 C 225.770 98.270 225.577 97.206 225.350 96.350 C 225.027 95.355 224.882 94.257 225.150 93.150 C 225.333 90.924 225.680 88.815 226.650 86.500 C 227.459 84.615 228.870 83.018 230.250 81.500 C 232.831 78.659 236.909 73.294 238.700 73.650 Z " transform="matrix(0.6268347501754761, -0.7791522145271301, 0.7791522145271301, 0.6268347501754761, -196.6, 261.25)"/>
      <path id="ID0.6281057996675372" fill="url(#grad_35)" stroke="#000000" stroke-linecap="round" d="M 216.600 77.600 C 217.685 78.416 217.521 81.546 217.750 83.500 C 217.960 85.310 218.307 87.330 217.859 88.973 C 217.590 89.904 216.822 90.677 215.950 90.900 C 214.995 91.147 213.299 91.321 212.850 90.400 C 212.142 88.504 212.981 86.330 213.250 84.325 C 213.406 83.153 213.488 81.889 214 80.800 C 214.576 79.609 215.811 77.066 216.600 77.600 Z " transform="matrix(0.819923996925354, -0.5724723935127258, 0.5724723935127258, 0.819923996925354, -209.65, 188.75)"/>
      <path id="ID0.7024129326455295" fill="url(#grad_36)" stroke="#1A5E2F" stroke-linecap="round" d="M 234.650 74.750 C 236.566 74.978 236.165 80.349 236.850 83.250 C 237.565 86.461 238.824 89.682 238.850 93.100 C 238.867 95.412 238.560 98.075 236.850 99.750 C 235.529 101.043 233.236 100.483 231.350 100.500 C 229.677 100.518 227.780 100.895 226.350 100 C 225.188 99.274 224.406 97.826 224.350 96.400 C 224.251 93.927 225.088 91.457 225.750 89.100 C 226.432 86.671 227.322 84.155 228.650 82.100 C 230.368 79.450 232.528 74.498 234.650 74.750 Z " transform="matrix(0.6268347501754761, -0.7791522145271301, 0.7791522145271301, 0.6268347501754761, -193.7, 258)"/>
      <path id="ID0.7577336127869785" fill="url(#grad_37)" stroke="#1A5E2F" stroke-linecap="round" d="M 236.150 73.250 C 237.468 72.125 236.836 78.278 237.050 80.750 C 237.124 83.500 237.233 86.268 237 88.925 C 236.783 91.424 236.336 94.355 235.263 96.224 C 234.191 98.093 232.710 99.250 231.075 99.250 C 229.440 99.250 226.900 98.015 226.887 96.224 C 230.426 81.499 233.092 76.554 236.150 73.250 Z " transform="matrix(0.6239192485809326, -0.7755282521247864, 0.7791522145271301, 0.6268347501754761, -194.5, 257)"/>
      <path id="ID0.43108229618519545" fill="url(#grad_38)" stroke="url(#grad_39)" stroke-width="2" stroke-linecap="round" d="M 234.500 79.450 C 235.708 79.422 235.767 83.566 236.150 85.600 C 236.484 87.374 236.636 89.194 236.650 91 C 236.670 92.933 237.132 95.140 236.350 97 C 235.847 98.012 234.401 98.441 233.250 98.600 C 231.579 98.830 229.301 99.477 228.350 98.200 C 227.169 96.650 228.253 94.337 228.650 92.500 C 229.140 90.235 229.892 88.009 230.850 85.900 C 231.852 83.693 233.058 79.572 234.500 79.450 Z " transform="matrix(0.6268347501754761, -0.7791522145271301, 0.7791522145271301, 0.6268347501754761, -195.15, 258.35)"/>
      <path id="ID0.6281057996675372" fill="url(#grad_40)" stroke="#4DA43D" stroke-linecap="round" d="M 216.600 77.600 C 217.685 78.416 217.521 81.546 217.750 83.500 C 217.960 85.310 218.307 87.330 217.859 88.973 C 217.590 89.904 216.822 90.677 215.950 90.900 C 214.995 91.147 213.299 91.321 212.850 90.400 C 212.142 88.504 212.981 86.330 213.250 84.325 C 213.406 83.153 213.488 81.889 214 80.800 C 214.576 79.609 215.811 77.066 216.600 77.600 Z " transform="matrix(0.6268347501754761, -0.7791522145271301, 0.7791522145271301, 0.6268347501754761, -182.15, 245.75)"/>
      <path id="ID0.6726859896443784" fill="url(#grad_41)" stroke="#000000" stroke-linecap="round" d="M 216.750 78.250 C 217.183 78.332 216.708 79.946 216.850 80.750 C 216.883 81.428 217.210 82.066 217.250 82.750 C 217.290 83.330 217.449 83.954 217.150 84.500 C 216.860 85.022 216.430 85.663 215.850 85.750 C 215.258 85.846 214.610 85.442 214.250 84.900 C 213.924 84.409 214.100 83.818 214.150 83.125 C 214.221 82.228 214.369 81.326 214.787 80.562 C 215.235 79.745 216.225 78.240 216.750 78.250 Z " transform="matrix(0.6268347501754761, -0.7791522145271301, 0.7791522145271301, 0.6268347501754761, -181.7, 246.55)"/>
    </g>
    <g id="ID0.01721258880570531">
      <path id="ID0.7024129326455295" fill="url(#grad_42)" stroke="#1A5E2F" stroke-linecap="round" d="M 238.700 73.650 C 240.282 74.009 236.809 80.087 236.850 83.250 C 236.894 86.596 238.824 89.682 238.850 93.100 C 238.867 95.412 238.560 98.075 236.850 99.750 C 235.529 101.043 233.210 100.580 231.350 100.500 C 229.647 100.426 227.936 99.687 226.500 98.750 C 225.770 98.270 225.577 97.206 225.350 96.350 C 225.027 95.355 224.882 94.257 225.150 93.150 C 225.333 90.924 225.680 88.815 226.650 86.500 C 227.459 84.615 228.870 83.018 230.250 81.500 C 232.831 78.659 236.909 73.294 238.700 73.650 Z " transform="matrix(-0.8399786353111267, -0.5426194071769714, -0.5426194071769714, 0.8399786353111267, 283.6, 210.75)"/>
      <path id="ID0.6281057996675372" fill="url(#grad_43)" stroke="#000000" stroke-linecap="round" d="M 216.600 77.600 C 217.685 78.416 217.521 81.546 217.750 83.500 C 217.960 85.310 218.307 87.330 217.859 88.973 C 217.590 89.904 216.822 90.677 215.950 90.900 C 214.995 91.147 213.299 91.321 212.850 90.400 C 212.142 88.504 212.981 86.330 213.250 84.325 C 213.406 83.153 213.488 81.889 214 80.800 C 214.576 79.609 215.811 77.066 216.600 77.600 Z " transform="matrix(-0.9583129286766052, -0.2857205867767334, -0.2857205867767334, 0.9583129286766052, 273.2, 137.85)"/>
      <path id="ID0.7024129326455295" fill="url(#grad_44)" stroke="#1A5E2F" stroke-linecap="round" d="M 234.650 74.750 C 236.566 74.978 236.165 80.349 236.850 83.250 C 237.565 86.461 238.824 89.682 238.850 93.100 C 238.867 95.412 238.560 98.075 236.850 99.750 C 235.529 101.043 233.236 100.483 231.350 100.500 C 229.677 100.518 227.780 100.895 226.350 100 C 225.188 99.274 224.406 97.826 224.350 96.400 C 224.251 93.927 225.088 91.457 225.750 89.100 C 226.432 86.671 227.322 84.155 228.650 82.100 C 230.368 79.450 232.528 74.498 234.650 74.750 Z " transform="matrix(-0.8399786353111267, -0.5426194071769714, -0.5426194071769714, 0.8399786353111267, 279.8, 208.6)"/>
      <path id="ID0.7577336127869785" fill="url(#grad_45)" stroke="#1A5E2F" stroke-linecap="round" d="M 236.150 73.250 C 237.468 72.125 236.836 78.278 237.050 80.750 C 237.124 83.500 237.233 86.268 237 88.925 C 236.783 91.424 236.336 94.355 235.263 96.224 C 234.191 98.093 232.710 99.250 231.075 99.250 C 229.440 99.250 226.900 98.015 226.887 96.224 C 230.426 81.499 233.092 76.554 236.150 73.250 Z " transform="matrix(-0.8360717296600342, -0.5400955677032471, -0.5426194071769714, 0.8399786353111267, 280.3, 207.45)"/>
      <path id="ID0.43108229618519545" fill="url(#grad_46)" stroke="url(#grad_47)" stroke-width="2" stroke-linecap="round" d="M 234.500 79.450 C 235.708 79.422 235.767 83.566 236.150 85.600 C 236.484 87.374 236.636 89.194 236.650 91 C 236.670 92.933 237.132 95.140 236.350 97 C 235.847 98.012 234.401 98.441 233.250 98.600 C 231.579 98.830 229.301 99.477 228.350 98.200 C 227.169 96.650 228.253 94.337 228.650 92.500 C 229.140 90.235 229.892 88.009 230.850 85.900 C 231.852 83.693 233.058 79.572 234.500 79.450 Z " transform="matrix(-0.8399786353111267, -0.5426194071769714, -0.5426194071769714, 0.8399786353111267, 281.35, 208.45)"/>
      <path id="ID0.6281057996675372" fill="url(#grad_48)" stroke="#4DA43D" stroke-linecap="round" d="M 216.600 77.600 C 217.685 78.416 217.521 81.546 217.750 83.500 C 217.960 85.310 218.307 87.330 217.859 88.973 C 217.590 89.904 216.822 90.677 215.950 90.900 C 214.995 91.147 213.299 91.321 212.850 90.400 C 212.142 88.504 212.981 86.330 213.250 84.325 C 213.406 83.153 213.488 81.889 214 80.800 C 214.576 79.609 215.811 77.066 216.600 77.600 Z " transform="matrix(-0.8399786353111267, -0.5426194071769714, -0.5426194071769714, 0.8399786353111267, 265.05, 200.6)"/>
      <path id="ID0.6726859896443784" fill="url(#grad_49)" stroke="#000000" stroke-linecap="round" d="M 216.750 78.250 C 217.183 78.332 216.708 79.946 216.850 80.750 C 216.883 81.428 217.210 82.066 217.250 82.750 C 217.290 83.330 217.449 83.954 217.150 84.500 C 216.860 85.022 216.430 85.663 215.850 85.750 C 215.258 85.846 214.610 85.442 214.250 84.900 C 213.924 84.409 214.100 83.818 214.150 83.125 C 214.221 82.228 214.369 81.326 214.787 80.562 C 215.235 79.745 216.225 78.240 216.750 78.250 Z " transform="matrix(-0.8399786353111267, -0.5426194071769714, -0.5426194071769714, 0.8399786353111267, 264.85, 201.55)"/>
    </g>
  </g>
</svg>