<svg version="1.1" width="275" height="221" viewBox="-1 -1 275 221" xmlns="http://www.w3.org/2000/svg" xmlns:xlink="http://www.w3.org/1999/xlink">
  <!-- Exported by Scratch - http://scratch.mit.edu/ -->
  <g id="ID0.7439791592769325" transform="matrix(1, 0, 0, 1, 0, -40)">
    <path id="ID0.396302180364728" fill="#B2B2B2" stroke="#B2B2B2" stroke-width="2" d="M 195 226 C 223.693 226 249.693 230.594 268.520 238.016 C 287.346 245.438 299 255.688 299 267 C 299 278.312 287.346 288.562 268.520 295.984 C 249.693 303.406 223.693 308 195 308 C 166.307 308 140.307 303.406 121.480 295.984 C 102.654 288.562 91 278.312 91 267 C 91 255.688 102.654 245.438 121.480 238.016 C 140.307 230.594 166.307 226 195 226 Z " transform="matrix(1, 0, 0, 1, -90, -90)"/>
    <path id="ID0.5264185820706189" fill="#7F7F7F" stroke="#7F7F7F" stroke-width="2" d="M 204.500 275 C 221.743 275 237.368 276.513 248.682 278.957 C 259.997 281.400 267 284.775 267 288.500 C 267 292.225 259.997 295.600 248.682 298.043 C 237.368 300.487 221.743 302 204.500 302 C 187.257 302 171.632 300.487 160.318 298.043 C 149.003 295.600 142 292.225 142 288.500 C 142 284.775 149.003 281.400 160.318 278.957 C 171.632 276.513 187.257 275 204.500 275 Z " transform="matrix(0.9952285289764404, -0.09757142513990402, 0.09757142513990402, 0.9952285289764404, -104, -66.85)"/>
  </g>
  <path id="ID0.48440392781049013" fill="#666666" stroke="#666666" stroke-width="2" stroke-linecap="round" d="M 330.500 137 C 336.682 135.116 341.840 127.587 348.500 128.500 C 357.472 129.753 369.181 133.847 372 142.750 C 375.715 154.501 374.279 172.037 363.855 178.855 C 351.347 187.036 333.827 179.121 319 177.250 C 311.321 176.282 302.562 175.131 297 169.750 C 293.186 166.054 294.058 158.808 295.250 153.500 C 296.039 150.013 300.406 148.151 303 145.500 C 305.344 143.104 307.206 140.380 310 138.750 C 312.102 137.526 314.821 137.943 317.250 137.750 C 321.622 137.403 326.274 138.289 330.500 137 Z " transform="matrix(1, 0, 0, 1, -101, -127)"/>
  <path id="ID0.5391820766963065" fill="#7F7F7F" stroke="#7F7F7F" stroke-width="2" stroke-linecap="round" d="M 361 206.750 C 366.307 206.147 372.887 206.790 376.750 210.500 C 382.059 216.055 386.131 224.075 385.750 231.750 C 385.419 238.424 379.639 243.983 374.500 248.250 C 371.201 251.279 366.308 252.580 361.750 252.500 C 354.518 252.375 347.370 249.558 340.500 248 C 334.808 246.708 328.773 246.352 323.447 243.944 C 319.249 242.044 313.639 240.088 313 235.750 C 312.039 230.807 316.683 226.333 319.750 222.500 C 322.086 219.583 324.915 216.533 328.500 215.500 C 334.768 213.694 341.626 215.936 347.750 214.250 C 352.730 212.947 355.964 207.321 361 206.750 Z " transform="matrix(1, 0, 0, 1, -115, -200)"/>
  <path id="ID0.497210955247283" fill="#B2B2B2" stroke="#B2B2B2" stroke-width="2" stroke-linecap="round" d="M 327.250 209 C 331.913 207.652 334.940 202.147 339.750 201.500 C 343.978 200.932 348.426 203.533 352 206 C 354.847 207.978 357.384 210.572 358.500 213.750 C 359.773 217.368 359.298 221.179 358.500 224.750 C 357.921 227.342 357.033 230.253 355 232 C 350.344 235.897 345.561 240.010 339.750 240.750 C 333.373 241.553 327.063 238.177 320.750 236.750 C 316.553 235.587 312.478 234.015 308.213 232.977 C 305.158 232.232 301.611 232.576 299 231 C 296.698 229.450 294.327 226.867 294.500 224.250 C 294.757 221.192 298.214 219.337 300.250 217 C 302.470 214.748 304.201 211.437 307.250 210.500 C 313.638 208.551 320.886 210.839 327.250 209 Z " transform="matrix(1, 0, 0, 1, -92.5, -191.5)"/>
</svg>