<svg version="1.1" width="168" height="223" viewBox="-1 -1 168 223" xmlns="http://www.w3.org/2000/svg" xmlns:xlink="http://www.w3.org/1999/xlink">
  <!-- Exported by Scratch - http://scratch.mit.edu/ -->
  <path id="ID0.13268017256632447" fill="#7F7F7F" stroke="#000000" stroke-width="2" d="M 226 117 C 249.338 115.148 267.539 139.943 280 159 C 287.587 170.601 288.620 187.921 283 200 C 275.972 213.366 260.352 222.076 246.752 225.889 C 232.996 229.755 218.621 222.285 204 222 C 184.399 222.285 164.178 230.902 144.248 225.889 C 133.923 223.293 125.830 212.017 123 202 C 120.856 191.407 123.170 177.533 131 171 C 158.871 147.807 189.762 119.877 226 117 Z " transform="matrix(1, 0, 0, 1, -121, -7)"/>
  <path id="ID0.4018077268265188" fill="#FFFFFF" stroke="#FFFFFF" stroke-width="2" stroke-linecap="round" d="M 222 121 C 224.145 121.120 223.406 124.872 222 126 C 217.601 129.551 212.533 132.818 207 134 C 205.068 134.413 204.862 131.296 205 130 C 204.402 129.459 205.859 129.191 206 130 C 205.861 131.959 205.126 135.349 203 136 C 197.285 137.731 185.480 138.018 184 137 C 182.540 135.499 192.200 131.876 196 130 C 199.858 128.065 203.893 126.366 208 125 C 212.988 123.352 217.542 120.648 222 121 Z " transform="matrix(1, 0, 0, 1, -121, -7)"/>
  <path id="ID0.06170313013717532" fill="none" stroke="#FFFFFF" stroke-width="2" stroke-linecap="round" d="M 214 126 L 214.300 126.300 " transform="matrix(1, 0, 0, 1, -121, -7)"/>
  <path id="ID0.13026891415938735" fill="none" stroke="#FFFFFF" stroke-width="2" stroke-linecap="round" d="M 199 133 L 199.300 133.300 " transform="matrix(1, 0, 0, 1, -121, -7)"/>
  <path id="ID0.478621041867882" fill="none" stroke="#FFFFFF" stroke-width="2" stroke-linecap="round" d="M 198 138 C 198 138 197.656 136.230 198 135 C 197.656 134.495 197.346 133.609 198 133 C 198.488 132.551 199.334 133 200 133 C 200.333 133 201 133 201 133 " transform="matrix(1, 0, 0, 1, -121, -7)"/>
  <path id="ID0.8003536919131875" fill="none" stroke="#CCCCCC" stroke-width="2" stroke-linecap="round" d="M 273 8 L 273.300 8.300 " transform="matrix(1, 0, 0, 1, -121, -7)"/>
</svg>