<svg version="1.1" width="137" height="103" viewBox="-1 -1 137 103" xmlns="http://www.w3.org/2000/svg" xmlns:xlink="http://www.w3.org/1999/xlink">
  <defs>
    <linearGradient id="grad_1" y2="1">
      <stop offset="0" stop-color="#666666" stop-opacity="1"/>
      <stop offset="1" stop-color="#CCCCCC" stop-opacity="1"/>
    </linearGradient>
    <linearGradient id="grad_2" y2="1">
      <stop offset="0" stop-color="#666666" stop-opacity="1"/>
      <stop offset="1" stop-color="#CCCCCC" stop-opacity="1"/>
    </linearGradient>
  </defs>
  <!-- Exported by Scratch - http://scratch.mit.edu/ -->
  <path id="ID0.7537349849008024" fill="url(#grad_1)" stroke="url(#grad_2)" stroke-width="2" stroke-linecap="round" d="M 221.850 152.500 C 225.951 152.107 230.812 153.096 233.600 156.250 C 236.691 159.745 237.697 165.111 237.350 169.750 C 237.255 174.123 235.192 178.457 232.350 181.750 C 228.953 185.691 225.033 190.672 219.750 191 C 211.284 191.527 201.475 188.423 195.185 184.259 C 188.894 180.096 183.972 174.303 185 168 C 185.940 162.242 194.468 160.841 199.850 158.500 C 206.807 155.474 214.253 152.887 221.850 152.500 Z " transform="matrix(2.4846248626708984, 0, 0, -2.4846248626708984, -456.5, 477.25)"/>
  <path id="ID0.00007517589256167412" fill="#B2B2B2" stroke="#B2B2B2" stroke-width="2" stroke-linecap="round" d="M 285.500 161.500 C 289.913 161.853 294.229 163.597 298.138 165.784 C 301.022 167.391 303.696 170.299 306 173 C 309.319 176.868 319.605 182.256 316 185.500 C 308.588 192.173 294.971 194.616 284 194 C 274.682 193.014 265.590 187.440 259 181 C 255.244 177.329 253.713 170.284 256 165.500 C 257.907 161.531 264.831 163.095 269 162.500 C 274.444 161.713 280.057 161.074 285.500 161.500 Z " transform="matrix(1, 0, 0, 1, -195, -160)"/>
  <path id="ID0.7325280634686351" fill="#7F7F7F" stroke="#7F7F7F" stroke-width="2" stroke-linecap="round" d="M 256 166.500 C 261.616 171.458 270.515 170.725 277.125 174.250 C 282.341 177.024 291.576 179.134 292 185 C 292.397 190.937 284.947 196.115 279.500 199 C 273.984 201.189 267.470 199.556 261.750 199 C 256.415 198.489 249.930 198.697 246.375 194.750 C 236.765 184.082 227.743 171.252 224 157 C 223.030 153.126 231.179 152.637 235 151 C 238.784 149.377 243.729 145.609 247 148 C 252.545 152.116 250.817 161.925 256 166.500 Z " transform="matrix(1, 0, 0, 1, -190.5, -141)"/>
  <path id="ID0.4958731681108475" fill="#7F7F7F" stroke="#7F7F7F" stroke-width="2" stroke-linecap="round" d="M 312.250 194 C 316.880 192.675 323.071 188.153 326.500 191.500 C 332.399 197.346 333.396 206.811 334.500 215 C 335.448 221.974 335.511 229.953 333.500 237 C 331.496 243.949 328.838 251.994 323 256.500 C 317.005 261.101 305.976 267.055 299.500 262 C 292.030 255.472 295.354 242.141 293.500 232 C 292.514 226.588 291.926 220.937 292.500 215.500 C 293.090 209.922 293.912 203.661 298 199.500 C 301.204 195.723 306.993 195.511 312.250 194 Z " transform="matrix(1, 0, 0, 1, -201.5, -163.5)"/>
</svg>