<svg version="1.1" width="376" height="234" viewBox="-1 -1 376 234" xmlns="http://www.w3.org/2000/svg" xmlns:xlink="http://www.w3.org/1999/xlink">
  <defs>
    <linearGradient id="grad_1" y2="1">
      <stop offset="0" stop-color="#00FFFF" stop-opacity="1"/>
      <stop offset="1" stop-color="#00CCCC" stop-opacity="1"/>
    </linearGradient>
    <linearGradient id="grad_2" y2="1">
      <stop offset="0" stop-color="#00FFFF" stop-opacity="1"/>
      <stop offset="1" stop-color="#00CCCC" stop-opacity="1"/>
    </linearGradient>
    <linearGradient id="grad_3" y2="1">
      <stop offset="0" stop-color="#00FFFF" stop-opacity="1"/>
      <stop offset="1" stop-color="#00CCCC" stop-opacity="1"/>
    </linearGradient>
    <linearGradient id="grad_4" y2="1">
      <stop offset="0" stop-color="#00FFFF" stop-opacity="1"/>
      <stop offset="1" stop-color="#00CCCC" stop-opacity="1"/>
    </linearGradient>
  </defs>
  <!-- Exported by Scratch - http://scratch.mit.edu/ -->
  <path id="ID0.5786763378418982" fill="#FF0000" stroke="#990000" stroke-width="4" stroke-linecap="round" d="M 56 202 L 58 199 L 419 199 L 423 201 L 424 206 L 403 255 L 418 279 L 416 284 L 412 287 L 86 288 L 66 287 L 66 285 L 64 282 L 97 265 L 54 207 L 56 202 Z " transform="matrix(1, 0, 0, 1, -51, -57)"/>
  <path id="ID0.03690660046413541" fill="#B2B2B2" stroke="#7F7F7F" stroke-width="3" d="M 297 134 L 393 134 L 393 198 L 297 198 L 297 134 Z " transform="matrix(1, 0, 0, 1, -51.5, -59.5)"/>
  <path id="ID0.03690660046413541" fill="#B2B2B2" stroke="#7F7F7F" stroke-width="3" d="M 297 134 L 393 134 L 393 198 L 297 198 L 297 134 Z " transform="matrix(0.6616161465644836, 0, 0, 0.6616161465644836, -16.1, 8.5)"/>
  <path id="ID0.5609184326604009" fill="url(#grad_1)" stroke="url(#grad_2)" stroke-width="3" stroke-linecap="round" d="M 119.300 81.500 L 121.400 79.500 L 188 79 L 190.500 81.500 L 192.400 84.350 L 192.900 94 L 191.800 97.600 L 188.500 99.500 L 122.400 100 L 120.300 99.500 L 118.650 97.200 L 118.400 83.200 L 119.300 81.500 Z " transform="matrix(1.4716129302978516, 0, 0, 1, 64.2, -28)"/>
  <path id="ID0.279711636248976" fill="#666666" stroke="#CCCC00" stroke-width="3" d="M 104 72 L 132 72 L 132 153 L 104 153 L 104 72 Z " transform="matrix(0.5503133535385132, -0.8349581956863403, 0.8349581956863403, 0.5503133535385132, -43.9, 74.1)"/>
  <path id="ID0.5609184326604009" fill="url(#grad_3)" stroke="url(#grad_4)" stroke-width="3" stroke-linecap="round" d="M 119.300 81.500 L 121.400 79.500 L 188 79 L 190.500 81.500 L 192.400 84.350 L 192.900 94 L 191.800 97.600 L 188.500 99.500 L 122.400 100 L 120.300 99.500 L 118.650 97.200 L 118.400 83.200 L 119.300 81.500 Z " transform="matrix(1.0056021213531494, 0, 0, 0.7291666865348816, 54.5, 22.5)"/>
  <path id="ID0.279711636248976" fill="#666666" stroke="#CCCC00" stroke-width="3" d="M 104 72 L 132 72 L 132 153 L 104 153 L 104 72 Z " transform="matrix(0.7694976329803467, 0.15880908071994781, -0.15880908071994781, 0.7694976329803467, 1.6, -63.4)"/>
  <path id="ID0.279711636248976" fill="#666666" stroke="#CCCC00" stroke-width="3" d="M 104 72 L 132 72 L 132 153 L 104 153 L 104 72 Z " transform="matrix(1, 0, 0, 1, 29.5, -14.5)"/>
  <path id="ID0.45502240117639303" fill="#666666" stroke="#CCCC00" stroke-width="3" d="M 109 87.500 C 112.725 87.500 116.100 89.013 118.543 91.457 C 120.987 93.900 122.500 97.275 122.500 101 C 122.500 104.725 120.987 108.100 118.543 110.543 C 116.100 112.987 112.725 114.500 109 114.500 C 105.275 114.500 101.900 112.987 99.457 110.543 C 97.013 108.100 95.500 104.725 95.500 101 C 95.500 97.275 97.013 93.900 99.457 91.457 C 101.900 89.013 105.275 87.500 109 87.500 Z " transform="matrix(1, 0, 0, 1, 38, -43.5)"/>
  <path id="ID0.45502240117639303" fill="#666666" stroke="#CCCC00" stroke-width="3" d="M 109 87.500 C 112.725 87.500 116.100 89.013 118.543 91.457 C 120.987 93.900 122.500 97.275 122.500 101 C 122.500 104.725 120.987 108.100 118.543 110.543 C 116.100 112.987 112.725 114.500 109 114.500 C 105.275 114.500 101.900 112.987 99.457 110.543 C 97.013 108.100 95.500 104.725 95.500 101 C 95.500 97.275 97.013 93.900 99.457 91.457 C 101.900 89.013 105.275 87.500 109 87.500 Z " transform="matrix(1, 0, 0, 1, -27.5, -85.5)"/>
</svg>