<svg version="1.1" width="206" height="112" viewBox="-1 -1 206 112" xmlns="http://www.w3.org/2000/svg" xmlns:xlink="http://www.w3.org/1999/xlink">
  <!-- Exported by Scratch - http://scratch.mit.edu/ -->
  <g id="ID0.5564080467447639" transform="matrix(1, 0, 0, 1, 43, 48)">
    <g id="Layer_8">
      <path id="ID0.4572189459577203" fill="#FAA51D" stroke="#231F20" stroke-width="1.2" d="M 23.754 82.506 C 20.883 81.104 13.243 79.988 8.983 75.811 C -0.448 66.565 5.159 54.079 9.687 54.014 C 13.298 53.953 13.050 59.496 14.309 65.159 C 15.184 69.098 15.982 72.147 20.716 74.833 C 25.451 77.521 27.634 77.749 27.634 77.749 C 27.634 77.749 30.892 78.540 29.230 80.311 C 27.568 82.076 23.754 82.506 23.754 82.506 Z "/>
      <path id="ID0.1260587745346129" fill="#FFFFFF" d="M 14.291 66.369 C 14.176 65.910 14.069 65.441 13.961 64.956 C 12.789 59.685 13.020 54.524 9.658 54.579 C 6.225 54.629 2.128 62.350 5.468 69.864 C 5.661 69.721 5.867 69.528 6.037 69.276 C 6.488 68.612 6.858 66.307 8.691 65.588 C 9.989 65.082 12.778 65.869 14.291 66.369 Z "/>
    </g>
    <path id="ID0.9704094468615949" fill="#FAA51D" stroke="#231F20" stroke-width="1.2" d="M 52.543 61.473 C 52.543 61.473 53.998 63.815 54.062 66.442 C 54.127 69.165 53.711 73.426 55.866 74.600 C 59.247 76.442 65.825 74.137 66.040 79.791 C 66.251 85.443 55.888 83.414 52.741 82.338 C 50.046 81.412 48.182 80.580 47.561 77.156 C 47.561 77.156 43.797 63.187 47.365 61.566 C 50.933 59.945 52.543 61.473 52.543 61.473 Z "/>
    <path id="ID0.8254672517068684" fill="#FAA51D" stroke="#231F20" stroke-width="1.2" d="M 14.610 89.584 C 14.610 89.584 16.114 99.975 8.688 97.971 C 3.102 96.461 2.983 77.291 8.282 77.280 C 11.519 77.274 12.707 80.139 12.707 80.139 C 12.707 80.139 17.092 84.951 19.657 84.451 C 22.222 83.949 27.635 77.748 27.635 77.748 C 27.635 77.748 30.510 75.209 33.781 77.771 C 37.052 80.332 35.302 83.949 35.302 83.949 C 35.302 83.949 29.232 91.021 24.288 92.021 C 19.343 93.023 14.913 89.453 12.708 88.570 "/>
    <g id="Layer_6">
      <path id="ID0.953856339212507" fill="#FAA51D" stroke="#231F20" stroke-width="1.2" d="M 42.435 76.238 C 42.435 76.238 47.301 80.300 50.601 83.758 C 54.985 88.350 47.262 98.797 47.262 98.797 C 47.262 98.797 58.496 105.264 50.260 109.797 C 47.603 111.264 34.599 96.572 34.599 96.572 C 34.599 96.572 42.578 89.097 39.571 86.400 C 34.607 81.951 28.800 81.441 27.971 76.576 C 27.469 73.619 28.584 72.074 30.629 69.523 C 31.983 67.834 32.713 66.341 32.713 66.341 C 32.713 66.341 33.848 59.103 37.002 58.087 C 40.155 57.073 45.844 58.144 47.760 58.482 C 49.674 58.820 54.405 60.359 52.377 68.404 C 52.377 68.404 50.926 72.175 49.588 74.166 C 47.984 76.555 46.734 78.090 45.508 79.033 "/>
      <path id="ID0.3173769526183605" fill="#FFFFFF" d="M 50.182 72.631 C 50.182 72.631 52.732 69.883 47.631 67.137 C 42.529 64.391 40.182 67.121 38.607 68.709 C 35.876 71.451 41.941 76.162 41.941 76.162 L 45.324 78.726 C 45.324 78.726 47.240 77.144 48.025 75.769 C 48.807 74.396 50.182 72.631 50.182 72.631 "/>
    </g>
    <path id="ID0.20161293912678957" fill="#FAA51D" stroke="#231F20" stroke-width="1.2" d="M 24.428 65.395 C 25.367 65.452 28.053 65.608 30.492 65.786 C 33.506 66.003 38.943 65.335 36.293 60.688 C 33.644 56.038 29.553 57.014 24.332 56.934 C 21.520 56.891 18.547 55.522 17.010 58.829 C 15.476 62.141 11.959 72.167 19.323 74.225 C 26.689 76.282 23.941 66.088 24.273 63.768 "/>
    <g id="Layer_2">
      <path id="ID0.5487379422411323" fill="#FAA51D" stroke="#231F20" stroke-width="1.2" d="M 51.709 10.156 C 50.169 10.013 46.959 9.840 45.191 9.925 C 40.463 10.150 35.967 11.853 35.967 11.853 L 22.949 3.357 L 25.184 22.263 C 25.830 21.481 14.629 35.067 21.705 46.487 C 28.785 57.913 43.938 63.005 62.693 59.279 C 81.448 55.551 85.922 44.748 84.679 39.033 C 83.437 33.319 76.357 31.210 76.357 31.210 C 76.357 31.210 76.267 26.730 73.029 21.240 C 71.103 17.972 64.681 13.199 64.681 13.199 L 61.822 1.647 L 54.370 8.851 L 51.709 10.156 Z "/>
      <path id="ID0.23715799301862717" fill="#FFFFFF" d="M 75.420 31.066 L 72.937 29.002 L 63.822 31.663 C 63.822 31.663 63.822 35.082 59.455 36.030 C 55.085 36.981 48.244 33.753 48.244 33.753 L 40.460 37.170 C 40.460 37.170 32.023 38.098 31.721 43.251 C 31.048 54.704 45.100 59.478 50.425 59.783 C 53.330 59.950 58.660 59.446 62.702 58.643 C 80.454 55.408 85.253 44.723 84.011 39.008 C 82.769 33.294 76.034 31.812 76.034 31.812 L 75.420 31.066 Z "/>
      <path id="ID0.6385380788706243" fill="none" stroke="#231F20" stroke-width="1.2" d="M 9.673 42.155 C 9.673 42.155 13.780 42.529 15.647 42.423 C 17.512 42.316 21.139 41.836 21.139 41.836 "/>
      <path id="ID0.2560644648037851" fill="none" stroke="#231F20" stroke-width="1.2" d="M 80.656 36.671 C 80.656 36.671 85.205 35.928 87.515 35.122 C 90.230 34.180 92.058 32.577 92.058 32.577 "/>
      <path id="ID0.05582909844815731" fill="none" stroke="#231F20" stroke-width="1.2" d="M 21.337 37.909 C 21.337 37.909 18.953 36.132 15.220 34.479 C 11.086 32.648 8.815 32.176 8.815 32.176 "/>
      <path id="ID0.7043110243976116" fill="none" stroke="#231F20" stroke-width="1.2" d="M 81.117 42.622 C 81.117 42.622 83.843 43.726 86.650 44.007 C 89.420 44.283 91.297 44.117 91.297 44.117 "/>
      <path id="ID0.8122623562812805" fill="none" stroke="#000000" stroke-linecap="round" d="M 51.349 10.212 C 54.189 10.912 55.237 11.681 55.237 11.681 "/>
      <path id="ID0.18230545846745372" fill="none" stroke="#000000" d="M 32.898 9.684 L 38.956 14.042 "/>
    </g>
    <g id="Layer_5">
      <path id="ID0.5096301888115704" fill="#FFFFFF" stroke="#231F20" d="M 70.840 21.366 C 73.764 25.845 73.873 30.957 71.082 32.781 C 68.289 34.606 63.656 32.449 60.728 27.968 C 57.796 23.488 57.691 18.379 60.484 16.553 C 63.275 14.730 67.913 16.884 70.840 21.366 Z "/>
      <path id="ID0.8202114277519286" fill="#231F20" d="M 70.089 28.522 C 70.089 29.602 69.287 30.478 68.289 30.478 C 67.296 30.478 66.486 29.601 66.486 28.522 C 66.486 27.442 67.296 26.564 68.289 26.564 C 69.287 26.564 70.089 27.442 70.089 28.522 "/>
    </g>
    <g id="Layer_7">
      <path id="ID0.37736973632127047" fill="#FFFFFF" stroke="#231F20" d="M 46.867 24.619 C 49.793 29.099 49.486 34.481 46.186 36.634 C 42.884 38.793 37.835 36.906 34.910 32.426 C 31.982 27.946 32.286 22.566 35.588 20.409 C 38.891 18.253 43.938 20.137 46.867 24.619 Z "/>
      <path id="ID0.03738284017890692" fill="#231F20" d="M 45.079 30.507 C 45.079 31.588 44.276 32.464 43.278 32.464 C 42.286 32.464 41.475 31.586 41.475 30.507 C 41.475 29.427 42.286 28.550 43.278 28.550 C 44.274 28.550 45.079 29.427 45.079 30.507 "/>
    </g>
    <path id="ID0.028854666743427515" fill="#5E4A42" stroke="#000000" d="M 58.766 33.926 C 60.620 33.926 63.321 33.642 63.463 34.495 C 63.606 35.350 61.754 38.698 60.475 38.840 C 59.192 38.982 54.350 36.487 54.280 34.921 C 54.206 33.355 57.055 33.926 58.766 33.926 Z "/>
    <g id="Layer_4">
      <path id="ID0.8420356195420027" fill="none" stroke="#231F20" stroke-width="1.2" d="M 45.774 41.235 C 45.774 41.235 56.121 44.289 59.991 45.132 C 63.859 45.974 70.842 46.816 70.842 46.816 C 70.842 46.816 62.852 57.061 53.514 54.460 C 44.176 51.863 44.345 45.975 45.774 41.235 Z "/>
    </g>
  </g>
  <path id="ID0.8557793633081019" fill="none" stroke="#000000" stroke-width="2" stroke-linecap="round" d="M 353 135 C 353 135 350.332 137.668 349 139 C 347.668 140.332 346.589 141.989 345 143 C 342.860 144.362 340.323 144.984 338 146 C 334.995 147.315 331.952 148.572 329 150 C 321.627 153.568 314.368 157.421 307 161 C 302.711 163.083 298.264 164.868 294 167 C 290.934 168.533 288.240 170.879 285 172 C 279.504 173.902 273.627 174.532 268 176 C 265.962 176.532 264.072 177.623 262 178 C 260.362 178.298 258.665 178 257 178 C 254.003 178 250.990 178.199 248 178 C 245.979 177.865 243.704 178.095 242 177 C 238.831 174.963 236.847 171.467 234 169 C 231.835 167.124 229.331 165.665 227 164 C 224.669 162.335 222.383 160.589 220 159 C 217.386 157.257 214.735 155.546 212 154 C 207.072 151.214 202.130 148.394 197 146 C 192.125 143.725 186.916 142.185 182 140 C 180.771 139.454 180.042 138.596 179 138 C 177.707 137.261 176.263 136.789 175 136 C 173.588 135.118 172.177 134.177 171 133 C 170.473 132.473 170.572 131.477 170 131 C 168.508 129.757 166.474 129.264 165 128 C 164.088 127.219 163.698 125.977 163 125 C 162.032 123.645 161.084 122.264 160 121 C 159.081 119.927 157.848 119.130 157 118 C 155.835 116.447 154.803 114.768 154 113 C 153.128 111.083 152.554 109.032 152 107 C 151.553 105.362 151 103.698 151 102 C 151 99.974 151.177 97.851 152 96 C 152.574 94.709 154.001 93.999 155 93 C 158.330 89.670 161.549 86.204 165 83 C 166.220 81.867 167.454 80.618 169 80 C 170.881 79.248 173.014 79.397 175 79 C 176.346 78.731 177.627 78 179 78 C 183.674 78 188.453 77.917 193 79 C 195.612 79.622 197.723 81.577 200 83 C 203.054 84.909 206.080 86.891 209 89 C 212.078 91.223 215.143 93.500 218 96 C 220.481 98.171 222.509 100.841 225 103 C 227.516 105.181 230.553 106.741 233 109 C 234.911 110.764 236.414 112.939 238 115 C 239.747 117.271 241.335 119.669 243 122 C 244.665 124.331 246.369 126.645 248 129 C 249.367 130.974 250.870 132.881 252 135 C 253.543 137.894 255.099 140.847 256 144 C 256.457 145.601 255.543 147.399 256 149 C 256.259 149.906 258 151 258 151 " transform="matrix(1, 0, 0, 1, -150, -77)"/>
</svg>