<svg version="1.1" width="485" height="150" viewBox="-1 -1 485 150" xmlns="http://www.w3.org/2000/svg" xmlns:xlink="http://www.w3.org/1999/xlink">
  <defs>
    <linearGradient id="grad_1" x2="1">
      <stop offset="0" stop-color="#000000" stop-opacity="1"/>
      <stop offset="1" stop-color="#E5E5E5" stop-opacity="1"/>
    </linearGradient>
    <linearGradient id="grad_2" y2="1">
      <stop offset="0" stop-color="#006622" stop-opacity="1"/>
      <stop offset="1" stop-color="#E5E5E5" stop-opacity="1"/>
    </linearGradient>
    <linearGradient id="grad_3" y2="1">
      <stop offset="0" stop-color="#006622" stop-opacity="1"/>
      <stop offset="1" stop-color="#E5E5E5" stop-opacity="1"/>
    </linearGradient>
    <linearGradient id="grad_4" y2="1">
      <stop offset="0" stop-color="#006622" stop-opacity="1"/>
      <stop offset="1" stop-color="#E5E5E5" stop-opacity="1"/>
    </linearGradient>
    <linearGradient id="grad_5" y2="1">
      <stop offset="0" stop-color="#006622" stop-opacity="1"/>
      <stop offset="1" stop-color="#E5E5E5" stop-opacity="1"/>
    </linearGradient>
    <linearGradient id="grad_6" x2="1">
      <stop offset="0" stop-color="#00FFFF" stop-opacity="1"/>
      <stop offset="1" stop-color="#FFFFFF" stop-opacity="1"/>
    </linearGradient>
  </defs>
  <!-- Exported by Scratch - http://scratch.mit.edu/ -->
  <path id="ID0.8565294044092298" fill="url(#grad_1)" stroke="#000000" stroke-width="2" d="M 2 93 L 480 93 L 480 259 L 2 259 L 2 93 Z " transform="matrix(1, 0, 0, 0.4229166507720947, 0, -38.25)"/>
  <g id="ID0.09810638334602118" transform="matrix(1, 0, 0, 0.1472868174314499, 2, 24.05)">
    <path id="ID0.8565294044092298" fill="url(#grad_2)" stroke="url(#grad_3)" stroke-width="2" d="M 2 93 L 480 93 L 480 259 L 2 259 L 2 93 Z " transform="matrix(1, 0, 0, 0.4229166507720947, -3, -31.45)"/>
    <path id="ID0.8565294044092298" fill="url(#grad_4)" stroke="url(#grad_5)" stroke-width="2" d="M 2 93 L 480 93 L 480 259 L 2 259 L 2 93 Z " transform="matrix(1, 0, 0, -0.4229166805744171, -2, 188.25)"/>
  </g>
  <path id="ID0.8565294044092298" fill="url(#grad_6)" stroke="#000000" stroke-width="2" d="M 2 93 L 480 93 L 480 259 L 2 259 L 2 93 Z " transform="matrix(0.0078125, 0, 0, 0.38035711646080017, 1, -31.05)"/>
</svg>